<mxfile host="app.diagrams.net" agent="Mozilla/5.0 (X11; Linux x86_64; rv:128.0) Gecko/20100101 Firefox/128.0" version="24.8.3">
  <diagram name="Page-1" id="BeLVxV9uaGs0DWx5FRq9">
    <mxGraphModel dx="750" dy="1113" grid="1" gridSize="10" guides="1" tooltips="1" connect="1" arrows="1" fold="1" page="1" pageScale="1" pageWidth="850" pageHeight="1100" math="0" shadow="0">
      <root>
        <mxCell id="0" />
        <mxCell id="1" parent="0" />
        <mxCell id="3LZYcf3ecd13g1_J7bfZ-20" value="" style="whiteSpace=wrap;html=1;aspect=fixed;" vertex="1" parent="1">
          <mxGeometry x="180" y="110" width="400" height="400" as="geometry" />
        </mxCell>
        <mxCell id="3LZYcf3ecd13g1_J7bfZ-4" value="" style="group" vertex="1" connectable="0" parent="1">
          <mxGeometry x="630" y="350" width="61" height="100" as="geometry" />
        </mxCell>
        <mxCell id="3LZYcf3ecd13g1_J7bfZ-1" value="" style="group" vertex="1" connectable="0" parent="3LZYcf3ecd13g1_J7bfZ-4">
          <mxGeometry y="15" width="60" height="85" as="geometry" />
        </mxCell>
        <object label="Actor" id="3LZYcf3ecd13g1_J7bfZ-2">
          <mxCell style="shape=umlActor;verticalLabelPosition=bottom;verticalAlign=top;html=1;outlineConnect=0;noLabel=1;labelPadding=0;" vertex="1" parent="3LZYcf3ecd13g1_J7bfZ-1">
            <mxGeometry x="16" y="25" width="30" height="60" as="geometry" />
          </mxCell>
        </object>
        <mxCell id="3LZYcf3ecd13g1_J7bfZ-25" value="" style="endArrow=none;html=1;rounded=0;exitX=1;exitY=1;exitDx=0;exitDy=0;" edge="1" parent="3LZYcf3ecd13g1_J7bfZ-1" source="3LZYcf3ecd13g1_J7bfZ-19">
          <mxGeometry width="50" height="50" relative="1" as="geometry">
            <mxPoint x="-34" y="105" as="sourcePoint" />
            <mxPoint x="16" y="55" as="targetPoint" />
          </mxGeometry>
        </mxCell>
        <mxCell id="3LZYcf3ecd13g1_J7bfZ-3" value="Dental Insurance Provider" style="text;html=1;align=center;verticalAlign=middle;whiteSpace=wrap;rounded=0;" vertex="1" parent="3LZYcf3ecd13g1_J7bfZ-4">
          <mxGeometry x="1" width="60" height="30" as="geometry" />
        </mxCell>
        <mxCell id="3LZYcf3ecd13g1_J7bfZ-5" value="" style="group" vertex="1" connectable="0" parent="1">
          <mxGeometry x="84" y="380" width="61" height="100" as="geometry" />
        </mxCell>
        <mxCell id="3LZYcf3ecd13g1_J7bfZ-6" value="" style="group" vertex="1" connectable="0" parent="3LZYcf3ecd13g1_J7bfZ-5">
          <mxGeometry y="15" width="60" height="85" as="geometry" />
        </mxCell>
        <object label="Actor" id="3LZYcf3ecd13g1_J7bfZ-7">
          <mxCell style="shape=umlActor;verticalLabelPosition=bottom;verticalAlign=top;html=1;outlineConnect=0;noLabel=1;labelPadding=0;" vertex="1" parent="3LZYcf3ecd13g1_J7bfZ-6">
            <mxGeometry x="16" y="25" width="30" height="60" as="geometry" />
          </mxCell>
        </object>
        <mxCell id="3LZYcf3ecd13g1_J7bfZ-8" value="Retirement Company" style="text;html=1;align=center;verticalAlign=middle;whiteSpace=wrap;rounded=0;" vertex="1" parent="3LZYcf3ecd13g1_J7bfZ-5">
          <mxGeometry x="1" width="60" height="30" as="geometry" />
        </mxCell>
        <mxCell id="3LZYcf3ecd13g1_J7bfZ-9" value="" style="group" vertex="1" connectable="0" parent="1">
          <mxGeometry x="94" y="90" width="61" height="100" as="geometry" />
        </mxCell>
        <mxCell id="3LZYcf3ecd13g1_J7bfZ-10" value="" style="group" vertex="1" connectable="0" parent="3LZYcf3ecd13g1_J7bfZ-9">
          <mxGeometry y="15" width="60" height="85" as="geometry" />
        </mxCell>
        <object label="Actor" id="3LZYcf3ecd13g1_J7bfZ-11">
          <mxCell style="shape=umlActor;verticalLabelPosition=bottom;verticalAlign=top;html=1;outlineConnect=0;noLabel=1;labelPadding=0;" vertex="1" parent="3LZYcf3ecd13g1_J7bfZ-10">
            <mxGeometry x="16" y="25" width="30" height="60" as="geometry" />
          </mxCell>
        </object>
        <mxCell id="3LZYcf3ecd13g1_J7bfZ-22" value="" style="endArrow=none;html=1;rounded=0;exitX=0;exitY=0.5;exitDx=0;exitDy=0;" edge="1" parent="3LZYcf3ecd13g1_J7bfZ-10" source="3LZYcf3ecd13g1_J7bfZ-19">
          <mxGeometry width="50" height="50" relative="1" as="geometry">
            <mxPoint x="-14" y="105" as="sourcePoint" />
            <mxPoint x="36" y="55" as="targetPoint" />
          </mxGeometry>
        </mxCell>
        <mxCell id="3LZYcf3ecd13g1_J7bfZ-12" value="&lt;div&gt;Employee&lt;/div&gt;" style="text;html=1;align=center;verticalAlign=middle;whiteSpace=wrap;rounded=0;" vertex="1" parent="3LZYcf3ecd13g1_J7bfZ-9">
          <mxGeometry x="1" width="60" height="30" as="geometry" />
        </mxCell>
        <mxCell id="3LZYcf3ecd13g1_J7bfZ-13" value="" style="group" vertex="1" connectable="0" parent="1">
          <mxGeometry x="630" y="90" width="61" height="100" as="geometry" />
        </mxCell>
        <mxCell id="3LZYcf3ecd13g1_J7bfZ-14" value="" style="group" vertex="1" connectable="0" parent="3LZYcf3ecd13g1_J7bfZ-13">
          <mxGeometry y="15" width="60" height="85" as="geometry" />
        </mxCell>
        <object label="Actor" id="3LZYcf3ecd13g1_J7bfZ-15">
          <mxCell style="shape=umlActor;verticalLabelPosition=bottom;verticalAlign=top;html=1;outlineConnect=0;noLabel=1;labelPadding=0;" vertex="1" parent="3LZYcf3ecd13g1_J7bfZ-14">
            <mxGeometry x="16" y="25" width="30" height="60" as="geometry" />
          </mxCell>
        </object>
        <mxCell id="3LZYcf3ecd13g1_J7bfZ-16" value="Health Insurance Provider" style="text;html=1;align=center;verticalAlign=middle;whiteSpace=wrap;rounded=0;" vertex="1" parent="3LZYcf3ecd13g1_J7bfZ-13">
          <mxGeometry x="1" width="60" height="30" as="geometry" />
        </mxCell>
        <mxCell id="3LZYcf3ecd13g1_J7bfZ-18" value="Register Employee" style="ellipse;whiteSpace=wrap;html=1;" vertex="1" parent="1">
          <mxGeometry x="320" y="190" width="120" height="80" as="geometry" />
        </mxCell>
        <mxCell id="3LZYcf3ecd13g1_J7bfZ-19" value="View Employee Benefit" style="ellipse;whiteSpace=wrap;html=1;" vertex="1" parent="1">
          <mxGeometry x="320" y="320" width="120" height="80" as="geometry" />
        </mxCell>
        <mxCell id="3LZYcf3ecd13g1_J7bfZ-23" value="" style="endArrow=none;html=1;rounded=0;entryX=0.008;entryY=0.388;entryDx=0;entryDy=0;entryPerimeter=0;exitX=0.5;exitY=0.5;exitDx=0;exitDy=0;exitPerimeter=0;" edge="1" parent="1" source="3LZYcf3ecd13g1_J7bfZ-11" target="3LZYcf3ecd13g1_J7bfZ-18">
          <mxGeometry width="50" height="50" relative="1" as="geometry">
            <mxPoint x="370" y="600" as="sourcePoint" />
            <mxPoint x="420" y="550" as="targetPoint" />
            <Array as="points" />
          </mxGeometry>
        </mxCell>
        <mxCell id="3LZYcf3ecd13g1_J7bfZ-24" value="" style="endArrow=none;html=1;rounded=0;entryX=0.083;entryY=0.763;entryDx=0;entryDy=0;entryPerimeter=0;exitX=0.5;exitY=0.5;exitDx=0;exitDy=0;exitPerimeter=0;" edge="1" parent="1" source="3LZYcf3ecd13g1_J7bfZ-7" target="3LZYcf3ecd13g1_J7bfZ-19">
          <mxGeometry width="50" height="50" relative="1" as="geometry">
            <mxPoint x="145" y="455" as="sourcePoint" />
            <mxPoint x="195" y="405" as="targetPoint" />
          </mxGeometry>
        </mxCell>
        <mxCell id="3LZYcf3ecd13g1_J7bfZ-26" value="" style="endArrow=none;html=1;rounded=0;entryX=0.5;entryY=0.5;entryDx=0;entryDy=0;entryPerimeter=0;" edge="1" parent="1" target="3LZYcf3ecd13g1_J7bfZ-15">
          <mxGeometry width="50" height="50" relative="1" as="geometry">
            <mxPoint x="440" y="350" as="sourcePoint" />
            <mxPoint x="490" y="300" as="targetPoint" />
          </mxGeometry>
        </mxCell>
        <mxCell id="3LZYcf3ecd13g1_J7bfZ-27" value="" style="endArrow=none;html=1;rounded=0;exitX=1;exitY=0.5;exitDx=0;exitDy=0;" edge="1" parent="1" source="3LZYcf3ecd13g1_J7bfZ-18">
          <mxGeometry width="50" height="50" relative="1" as="geometry">
            <mxPoint x="450" y="360" as="sourcePoint" />
            <mxPoint x="660" y="160" as="targetPoint" />
          </mxGeometry>
        </mxCell>
      </root>
    </mxGraphModel>
  </diagram>
</mxfile>
